<?xml version="1.0" encoding="us-ascii" standalone="no"?><svg xmlns="http://www.w3.org/2000/svg" xmlns:xlink="http://www.w3.org/1999/xlink" contentStyleType="text/css" height="1066px" preserveAspectRatio="none" style="width:893px;height:1066px;background:#FFFFFF;" version="1.1" viewBox="0 0 893 1066" width="893px" zoomAndPan="magnify"><defs/><g><line style="stroke:#181818;stroke-width:0.5;stroke-dasharray:5.0,5.0;" x1="54" x2="54" y1="36.2969" y2="1030.8125"/><line style="stroke:#181818;stroke-width:0.5;stroke-dasharray:5.0,5.0;" x1="538" x2="538" y1="36.2969" y2="1030.8125"/><rect fill="#E2E2F0" height="30.2969" rx="2.5" ry="2.5" style="stroke:#181818;stroke-width:0.5;" width="98" x="5" y="5"/><text fill="#000000" font-family="sans-serif" font-size="14" lengthAdjust="spacing" textLength="84" x="12" y="24.9951">&#12463;&#12521;&#12452;&#12450;&#12531;&#12488;</text><rect fill="#E2E2F0" height="30.2969" rx="2.5" ry="2.5" style="stroke:#181818;stroke-width:0.5;" width="98" x="5" y="1029.8125"/><text fill="#000000" font-family="sans-serif" font-size="14" lengthAdjust="spacing" textLength="84" x="12" y="1049.8076">&#12463;&#12521;&#12452;&#12450;&#12531;&#12488;</text><rect fill="#E2E2F0" height="30.2969" rx="2.5" ry="2.5" style="stroke:#181818;stroke-width:0.5;" width="70" x="503" y="5"/><text fill="#000000" font-family="sans-serif" font-size="14" lengthAdjust="spacing" textLength="56" x="510" y="24.9951">&#12469;&#12540;&#12496;&#12540;</text><rect fill="#E2E2F0" height="30.2969" rx="2.5" ry="2.5" style="stroke:#181818;stroke-width:0.5;" width="70" x="503" y="1029.8125"/><text fill="#000000" font-family="sans-serif" font-size="14" lengthAdjust="spacing" textLength="56" x="510" y="1049.8076">&#12469;&#12540;&#12496;&#12540;</text><rect fill="#EEEEEE" height="3" style="stroke:#EEEEEE;stroke-width:1.0;" width="886" x="0" y="66.8633"/><line style="stroke:#000000;stroke-width:1.0;" x1="0" x2="886" y1="66.8633" y2="66.8633"/><line style="stroke:#000000;stroke-width:1.0;" x1="0" x2="886" y1="69.8633" y2="69.8633"/><rect fill="#EEEEEE" height="23.1328" style="stroke:#000000;stroke-width:2.0;" width="145" x="370.5" y="56.2969"/><text fill="#000000" font-family="sans-serif" font-size="13" font-weight="bold" lengthAdjust="spacing" textLength="126" x="376.5" y="72.3638">&#12501;&#12523;&#12495;&#12531;&#12489;&#12471;&#12455;&#12452;&#12463;</text><line style="stroke:#181818;stroke-width:1.0;" x1="54" x2="96" y1="110.5625" y2="110.5625"/><line style="stroke:#181818;stroke-width:1.0;" x1="96" x2="96" y1="110.5625" y2="123.5625"/><line style="stroke:#181818;stroke-width:1.0;" x1="55" x2="96" y1="123.5625" y2="123.5625"/><polygon fill="#181818" points="65,119.5625,55,123.5625,65,127.5625,61,123.5625" style="stroke:#181818;stroke-width:1.0;"/><text fill="#000000" font-family="sans-serif" font-size="13" font-weight="bold" lengthAdjust="spacing" textLength="9" x="61" y="105.4966">1</text><text fill="#000000" font-family="sans-serif" font-size="13" lengthAdjust="spacing" textLength="186" x="74" y="105.4966">&#20107;&#21069;&#12395;&#31192;&#23494;&#37749;/&#20132;&#25563;&#37749;&#12506;&#12450;&#12434;&#29983;&#25104;</text><line style="stroke:#181818;stroke-width:1.0;" x1="538" x2="580" y1="152.6953" y2="152.6953"/><line style="stroke:#181818;stroke-width:1.0;" x1="580" x2="580" y1="152.6953" y2="165.6953"/><line style="stroke:#181818;stroke-width:1.0;" x1="539" x2="580" y1="165.6953" y2="165.6953"/><polygon fill="#181818" points="549,161.6953,539,165.6953,549,169.6953,545,165.6953" style="stroke:#181818;stroke-width:1.0;"/><text fill="#000000" font-family="sans-serif" font-size="13" font-weight="bold" lengthAdjust="spacing" textLength="9" x="545" y="147.6294">2</text><text fill="#000000" font-family="sans-serif" font-size="13" lengthAdjust="spacing" textLength="186" x="558" y="147.6294">&#20107;&#21069;&#12395;&#31192;&#23494;&#37749;/&#20132;&#25563;&#37749;&#12506;&#12450;&#12434;&#29983;&#25104;</text><polygon fill="#181818" points="526,205.9609,536,209.9609,526,213.9609,530,209.9609" style="stroke:#181818;stroke-width:1.0;"/><line style="stroke:#181818;stroke-width:1.0;" x1="54" x2="532" y1="209.9609" y2="209.9609"/><text fill="#000000" font-family="sans-serif" font-size="13" font-weight="bold" lengthAdjust="spacing" textLength="8" x="61" y="197.3286">3</text><text fill="#000000" font-family="sans-serif" font-size="13" lengthAdjust="spacing" textLength="67" x="73" y="189.7622">ClientHello</text><text fill="#000000" font-family="sans-serif" font-size="13" lengthAdjust="spacing" textLength="448" x="73" y="204.895">(+ &#12469;&#12509;&#12540;&#12488;&#12377;&#12427;&#12496;&#12540;&#12472;&#12519;&#12531;, + &#26263;&#21495;&#12473;&#12452;&#12540;&#12488;, + &#12461;&#12540;&#12471;&#12455;&#12450;, + PSK, + &#25313;&#24373;)</text><polygon fill="#181818" points="65,250.2266,55,254.2266,65,258.2266,61,254.2266" style="stroke:#181818;stroke-width:1.0;"/><line style="stroke:#181818;stroke-width:1.0;" x1="59" x2="537" y1="254.2266" y2="254.2266"/><text fill="#000000" font-family="sans-serif" font-size="13" font-weight="bold" lengthAdjust="spacing" textLength="9" x="71" y="241.5942">4</text><text fill="#000000" font-family="sans-serif" font-size="13" lengthAdjust="spacing" textLength="73" x="84" y="234.0278">ServerHello</text><text fill="#000000" font-family="sans-serif" font-size="13" lengthAdjust="spacing" textLength="422" x="84" y="249.1606">(+ &#36984;&#25246;&#12375;&#12383;&#12496;&#12540;&#12472;&#12519;&#12531;, + &#26263;&#21495;&#12473;&#12452;&#12540;&#12488;, + &#12461;&#12540;&#12471;&#12455;&#12450;, + PSK, + &#25313;&#24373;)</text><line style="stroke:#181818;stroke-width:1.0;" x1="538" x2="580" y1="313.625" y2="313.625"/><line style="stroke:#181818;stroke-width:1.0;" x1="580" x2="580" y1="313.625" y2="326.625"/><line style="stroke:#181818;stroke-width:1.0;" x1="539" x2="580" y1="326.625" y2="326.625"/><polygon fill="#181818" points="549,322.625,539,326.625,549,330.625,545,326.625" style="stroke:#181818;stroke-width:1.0;"/><text fill="#000000" font-family="sans-serif" font-size="13" font-weight="bold" lengthAdjust="spacing" textLength="9" x="545" y="293.4263">5</text><text fill="#000000" font-family="sans-serif" font-size="13" lengthAdjust="spacing" textLength="156" x="558" y="278.2935">&#12503;&#12525;&#12488;&#12467;&#12523;&#12496;&#12540;&#12472;&#12519;&#12531;&#36984;&#25246;</text><text fill="#000000" font-family="sans-serif" font-size="13" lengthAdjust="spacing" textLength="104" x="558" y="293.4263">&#26263;&#21495;&#12473;&#12452;&#12540;&#12488;&#36984;&#25246;</text><text fill="#000000" font-family="sans-serif" font-size="13" lengthAdjust="spacing" textLength="91" x="558" y="308.5591">&#19968;&#26178;&#37749;&#12506;&#12450;&#29983;&#25104;</text><line style="stroke:#181818;stroke-width:1.0;" x1="538" x2="580" y1="355.7578" y2="355.7578"/><line style="stroke:#181818;stroke-width:1.0;" x1="580" x2="580" y1="355.7578" y2="368.7578"/><line style="stroke:#181818;stroke-width:1.0;" x1="539" x2="580" y1="368.7578" y2="368.7578"/><polygon fill="#181818" points="549,364.7578,539,368.7578,549,372.7578,545,368.7578" style="stroke:#181818;stroke-width:1.0;"/><text fill="#000000" font-family="sans-serif" font-size="13" font-weight="bold" lengthAdjust="spacing" textLength="9" x="545" y="350.6919">6</text><text fill="#000000" font-family="sans-serif" font-size="13" lengthAdjust="spacing" textLength="169" x="558" y="350.6919">&#20849;&#26377;&#12495;&#12531;&#12489;&#12471;&#12455;&#12452;&#12463;&#37749;&#12398;&#23566;&#20986;</text><line style="stroke:#181818;stroke-width:1.0;" x1="54" x2="96" y1="413.0234" y2="413.0234"/><line style="stroke:#181818;stroke-width:1.0;" x1="96" x2="96" y1="413.0234" y2="426.0234"/><line style="stroke:#181818;stroke-width:1.0;" x1="55" x2="96" y1="426.0234" y2="426.0234"/><polygon fill="#181818" points="65,422.0234,55,426.0234,65,430.0234,61,426.0234" style="stroke:#181818;stroke-width:1.0;"/><text fill="#000000" font-family="sans-serif" font-size="13" font-weight="bold" lengthAdjust="spacing" textLength="9" x="61" y="400.3911">7</text><text fill="#000000" font-family="sans-serif" font-size="13" lengthAdjust="spacing" textLength="91" x="74" y="392.8247">&#19968;&#26178;&#37749;&#12506;&#12450;&#29983;&#25104;</text><text fill="#000000" font-family="sans-serif" font-size="13" lengthAdjust="spacing" textLength="167" x="74" y="407.9575">&#20849;&#26377;&#31192;&#23494;&#35336;&#31639;&#65288;PSK&#20351;&#29992;&#26178;&#65289;</text><line style="stroke:#181818;stroke-width:1.0;" x1="54" x2="96" y1="455.1563" y2="455.1563"/><line style="stroke:#181818;stroke-width:1.0;" x1="96" x2="96" y1="455.1563" y2="468.1563"/><line style="stroke:#181818;stroke-width:1.0;" x1="55" x2="96" y1="468.1563" y2="468.1563"/><polygon fill="#181818" points="65,464.1563,55,468.1563,65,472.1563,61,468.1563" style="stroke:#181818;stroke-width:1.0;"/><text fill="#000000" font-family="sans-serif" font-size="13" font-weight="bold" lengthAdjust="spacing" textLength="9" x="61" y="450.0903">8</text><text fill="#000000" font-family="sans-serif" font-size="13" lengthAdjust="spacing" textLength="169" x="74" y="450.0903">&#20849;&#26377;&#12495;&#12531;&#12489;&#12471;&#12455;&#12452;&#12463;&#37749;&#12398;&#23566;&#20986;</text><polygon fill="#181818" points="65,493.2891,55,497.2891,65,501.2891,61,497.2891" style="stroke:#181818;stroke-width:1.0;"/><line style="stroke:#181818;stroke-width:1.0;" x1="59" x2="537" y1="497.2891" y2="497.2891"/><text fill="#000000" font-family="sans-serif" font-size="13" font-weight="bold" lengthAdjust="spacing" textLength="9" x="71" y="492.2231">9</text><text fill="#000000" font-family="sans-serif" font-size="13" lengthAdjust="spacing" textLength="135" x="84" y="492.2231">EncryptedExtensions</text><polygon fill="#181818" points="65,522.4219,55,526.4219,65,530.4219,61,526.4219" style="stroke:#181818;stroke-width:1.0;"/><line style="stroke:#181818;stroke-width:1.0;" x1="59" x2="537" y1="526.4219" y2="526.4219"/><text fill="#000000" font-family="sans-serif" font-size="13" font-weight="bold" lengthAdjust="spacing" textLength="19" x="71" y="521.356">10</text><text fill="#000000" font-family="sans-serif" font-size="13" lengthAdjust="spacing" textLength="210" x="94" y="521.356">CertificateRequest&#65288;&#12458;&#12503;&#12471;&#12519;&#12531;&#65289;</text><polygon fill="#181818" points="65,566.6875,55,570.6875,65,574.6875,61,570.6875" style="stroke:#181818;stroke-width:1.0;"/><line style="stroke:#181818;stroke-width:1.0;" x1="59" x2="537" y1="570.6875" y2="570.6875"/><text fill="#000000" font-family="sans-serif" font-size="13" font-weight="bold" lengthAdjust="spacing" textLength="18" x="71" y="558.0552">11</text><text fill="#000000" font-family="sans-serif" font-size="13" lengthAdjust="spacing" textLength="39" x="93" y="550.4888">&#35388;&#26126;&#26360;</text><text fill="#000000" font-family="sans-serif" font-size="13" lengthAdjust="spacing" textLength="115" x="93" y="565.6216">(+ &#12469;&#12540;&#12496;&#12540;&#35388;&#26126;&#26360;)</text><polygon fill="#181818" points="65,610.9531,55,614.9531,65,618.9531,61,614.9531" style="stroke:#181818;stroke-width:1.0;"/><line style="stroke:#181818;stroke-width:1.0;" x1="59" x2="537" y1="614.9531" y2="614.9531"/><text fill="#000000" font-family="sans-serif" font-size="13" font-weight="bold" lengthAdjust="spacing" textLength="18" x="71" y="602.3208">12</text><text fill="#000000" font-family="sans-serif" font-size="13" lengthAdjust="spacing" textLength="104" x="93" y="594.7544">CertificateVerify</text><text fill="#000000" font-family="sans-serif" font-size="13" lengthAdjust="spacing" textLength="102" x="93" y="609.8872">(+ &#12487;&#12472;&#12479;&#12523;&#32626;&#21517;)</text><polygon fill="#181818" points="65,655.2188,55,659.2188,65,663.2188,61,659.2188" style="stroke:#181818;stroke-width:1.0;"/><line style="stroke:#181818;stroke-width:1.0;" x1="59" x2="537" y1="659.2188" y2="659.2188"/><text fill="#000000" font-family="sans-serif" font-size="13" font-weight="bold" lengthAdjust="spacing" textLength="17" x="71" y="646.5864">13</text><text fill="#000000" font-family="sans-serif" font-size="13" lengthAdjust="spacing" textLength="52" x="92" y="639.02">Finished</text><text fill="#000000" font-family="sans-serif" font-size="13" lengthAdjust="spacing" textLength="97" x="92" y="654.1528">(+ Verify Data)</text><line style="stroke:#181818;stroke-width:1.0;" x1="54" x2="96" y1="688.3516" y2="688.3516"/><line style="stroke:#181818;stroke-width:1.0;" x1="96" x2="96" y1="688.3516" y2="701.3516"/><line style="stroke:#181818;stroke-width:1.0;" x1="55" x2="96" y1="701.3516" y2="701.3516"/><polygon fill="#181818" points="65,697.3516,55,701.3516,65,705.3516,61,701.3516" style="stroke:#181818;stroke-width:1.0;"/><text fill="#000000" font-family="sans-serif" font-size="13" font-weight="bold" lengthAdjust="spacing" textLength="18" x="61" y="683.2856">14</text><text fill="#000000" font-family="sans-serif" font-size="13" lengthAdjust="spacing" textLength="338" x="83" y="683.2856">&#20849;&#26377;&#12450;&#12503;&#12522;&#12465;&#12540;&#12471;&#12519;&#12531;&#37749;&#12398;&#23566;&#20986;&#65288;&#12463;&#12521;&#12452;&#12450;&#12531;&#12488;&#37749;&#12392;&#21516;&#12376;&#65289;</text><line style="stroke:#181818;stroke-width:1.0;" x1="538" x2="580" y1="730.4844" y2="730.4844"/><line style="stroke:#181818;stroke-width:1.0;" x1="580" x2="580" y1="730.4844" y2="743.4844"/><line style="stroke:#181818;stroke-width:1.0;" x1="539" x2="580" y1="743.4844" y2="743.4844"/><polygon fill="#181818" points="549,739.4844,539,743.4844,549,747.4844,545,743.4844" style="stroke:#181818;stroke-width:1.0;"/><text fill="#000000" font-family="sans-serif" font-size="13" font-weight="bold" lengthAdjust="spacing" textLength="18" x="545" y="725.4185">15</text><text fill="#000000" font-family="sans-serif" font-size="13" lengthAdjust="spacing" textLength="312" x="567" y="725.4185">&#20849;&#26377;&#12450;&#12503;&#12522;&#12465;&#12540;&#12471;&#12519;&#12531;&#37749;&#12398;&#23566;&#20986;&#65288;&#12469;&#12540;&#12496;&#12540;&#37749;&#12392;&#21516;&#12376;&#65289;</text><polygon fill="#181818" points="526,783.75,536,787.75,526,791.75,530,787.75" style="stroke:#181818;stroke-width:1.0;"/><line style="stroke:#181818;stroke-width:1.0;" x1="54" x2="532" y1="787.75" y2="787.75"/><text fill="#000000" font-family="sans-serif" font-size="13" font-weight="bold" lengthAdjust="spacing" textLength="18" x="61" y="775.1177">16</text><text fill="#000000" font-family="sans-serif" font-size="13" lengthAdjust="spacing" textLength="130" x="83" y="767.5513">&#35388;&#26126;&#26360;&#65288;&#12458;&#12503;&#12471;&#12519;&#12531;&#65289;</text><text fill="#000000" font-family="sans-serif" font-size="13" lengthAdjust="spacing" textLength="141" x="83" y="782.6841">(+ &#12463;&#12521;&#12452;&#12450;&#12531;&#12488;&#35388;&#26126;&#26360;)</text><polygon fill="#181818" points="526,828.0156,536,832.0156,526,836.0156,530,832.0156" style="stroke:#181818;stroke-width:1.0;"/><line style="stroke:#181818;stroke-width:1.0;" x1="54" x2="532" y1="832.0156" y2="832.0156"/><text fill="#000000" font-family="sans-serif" font-size="13" font-weight="bold" lengthAdjust="spacing" textLength="18" x="61" y="819.3833">17</text><text fill="#000000" font-family="sans-serif" font-size="13" lengthAdjust="spacing" textLength="195" x="83" y="811.8169">CertificateVerify&#65288;&#12458;&#12503;&#12471;&#12519;&#12531;&#65289;</text><text fill="#000000" font-family="sans-serif" font-size="13" lengthAdjust="spacing" textLength="102" x="83" y="826.9497">(+ &#12487;&#12472;&#12479;&#12523;&#32626;&#21517;)</text><polygon fill="#181818" points="526,872.2813,536,876.2813,526,880.2813,530,876.2813" style="stroke:#181818;stroke-width:1.0;"/><line style="stroke:#181818;stroke-width:1.0;" x1="54" x2="532" y1="876.2813" y2="876.2813"/><text fill="#000000" font-family="sans-serif" font-size="13" font-weight="bold" lengthAdjust="spacing" textLength="18" x="61" y="863.6489">18</text><text fill="#000000" font-family="sans-serif" font-size="13" lengthAdjust="spacing" textLength="52" x="83" y="856.0825">Finished</text><text fill="#000000" font-family="sans-serif" font-size="13" lengthAdjust="spacing" textLength="97" x="83" y="871.2153">(+ Verify Data)</text><path d="M14,889.2813 L14,914.2813 L577,914.2813 L577,899.2813 L567,889.2813 L14,889.2813 " fill="#FEFFDD" style="stroke:#181818;stroke-width:0.5;"/><path d="M567,889.2813 L567,899.2813 L577,899.2813 L567,889.2813 " fill="#FEFFDD" style="stroke:#181818;stroke-width:0.5;"/><text fill="#000000" font-family="sans-serif" font-size="13" lengthAdjust="spacing" textLength="130" x="226" y="906.3481">&#12475;&#12461;&#12517;&#12450;&#12481;&#12515;&#12493;&#12523;&#30906;&#31435;</text><rect fill="#EEEEEE" height="3" style="stroke:#EEEEEE;stroke-width:1.0;" width="886" x="0" y="939.9805"/><line style="stroke:#000000;stroke-width:1.0;" x1="0" x2="886" y1="939.9805" y2="939.9805"/><line style="stroke:#000000;stroke-width:1.0;" x1="0" x2="886" y1="942.9805" y2="942.9805"/><rect fill="#EEEEEE" height="23.1328" style="stroke:#000000;stroke-width:2.0;" width="89" x="398.5" y="929.4141"/><text fill="#000000" font-family="sans-serif" font-size="13" font-weight="bold" lengthAdjust="spacing" textLength="70" x="404.5" y="945.481">&#12487;&#12540;&#12479;&#20132;&#25563;</text><polygon fill="#181818" points="526,979.6797,536,983.6797,526,987.6797,530,983.6797" style="stroke:#181818;stroke-width:1.0;"/><line style="stroke:#181818;stroke-width:1.0;" x1="54" x2="532" y1="983.6797" y2="983.6797"/><text fill="#000000" font-family="sans-serif" font-size="13" font-weight="bold" lengthAdjust="spacing" textLength="18" x="61" y="978.6138">19</text><text fill="#000000" font-family="sans-serif" font-size="13" lengthAdjust="spacing" textLength="221" x="83" y="978.6138">&#26263;&#21495;&#21270;&#12373;&#12428;&#12383;&#12450;&#12503;&#12522;&#12465;&#12540;&#12471;&#12519;&#12531;&#12487;&#12540;&#12479;</text><polygon fill="#181818" points="65,1008.8125,55,1012.8125,65,1016.8125,61,1012.8125" style="stroke:#181818;stroke-width:1.0;"/><line style="stroke:#181818;stroke-width:1.0;" x1="59" x2="537" y1="1012.8125" y2="1012.8125"/><text fill="#000000" font-family="sans-serif" font-size="13" font-weight="bold" lengthAdjust="spacing" textLength="19" x="71" y="1007.7466">20</text><text fill="#000000" font-family="sans-serif" font-size="13" lengthAdjust="spacing" textLength="221" x="94" y="1007.7466">&#26263;&#21495;&#21270;&#12373;&#12428;&#12383;&#12450;&#12503;&#12522;&#12465;&#12540;&#12471;&#12519;&#12531;&#12487;&#12540;&#12479;</text><!--SRC=[jLHTJnD157tVNp7m907ZkqbDAbHDDCPGuXClQpkDczHjxIv6tjoPQ5jBQMF05b295TDA0uY4M6i9F-Psj_34Nt0-rcsfmuSclcmsC_VSSy-vT-v872SC4wFfoEHC-FxjUn4KI-gMfOtuvrFXcV3DS3I2i6aRzhocfVMCRSICj6xQQ1J83j0lG3Q0r83k0SsD8jr2aqc3XG-7xWFj02sphmYAuimpdD6qK0W1NGRQ15eIEV90lWEfYwmxA1JID7tEJfbpJnwnS9aQNRtXaw3hgDikkFaYECrUlUhkl3ekxb_hjZUyqXhx0xhAIoDlUalhNgwiIL8Ez__-3Zv07-3bqHsSJAPcpIlZI0XzBxJcm5a1Kf2YWRI0rfd22JIElDMAMs8gVt2L8fIV0jaIWL9-ZHyzYDuLyOMFRcT_J1iG4EYNH_q2ZfsMz_e3E1LmrlyFTQ0TQ0Ne5XTAzaG7Jx79GcRDFnb_ttHRBxmL4XXzTfFSbxlUkxnoGZZQsNQ_BhhPjgQS3nN9h2bJogOVDNAzxSf99ySqTmyEUqiDXZZfv5NfBbsAebKHCvQPJziu7dbkOzCoKgQb2fl4xE4aZ9XkusdyT0vRDYiDo2Qtcz49Stbr2kXHe-DL5xsrLdyM_KSNt8nTGFaGPup4lCJJBEycEMJDxHrySyj59VYMOHhMOnmN60b7KxgjZsdd6CWt1fkUJI2x_kJ9eHdmKAWUtZ0YeE6M5y2fdZPXU5ekoz3tQ3Ytuha7DYfRuhi-NFE0zweDCkpzEQaL3L5aFBiXPih6ACMZ96oY_vR9Jx44Fekg7Q2VW1OvJQtTQnRyFPqLHXxA1Ibsiu9TldTtuIquoq0M-1ewenL1GjLK_KEQNm00]--></g></svg>